<svg aria-hidden="true" style="position: absolute; width: 0; height: 0; overflow: hidden;" version="1.1" xmlns="http://www.w3.org/2000/svg" xmlns:xlink="http://www.w3.org/1999/xlink">
<defs>
<symbol id="icon-print" viewBox="0 0 32 32">
<path fill="#5200d9" style="fill: var(--color1, #5200d9)" d="M10.374 4.967c-0.276 0-0.503-0.227-0.503-0.503s0.227-0.496 0.503-0.496h4.507c0.276 0 0.503 0.22 0.503 0.496s-0.226 0.503-0.503 0.503h-4.507zM10.374 12.011c-0.133-0.001-0.261-0.054-0.355-0.148s-0.147-0.222-0.148-0.355c0-0.276 0.227-0.496 0.503-0.496h8.865c0.276 0 0.503 0.22 0.503 0.496s-0.227 0.503-0.503 0.503h-8.865zM10.374 9.757c-0.276 0-0.503-0.22-0.503-0.496 0.001-0.133 0.054-0.261 0.148-0.355s0.222-0.147 0.355-0.148h11.253c0.276 0 0.496 0.226 0.496 0.503s-0.22 0.496-0.496 0.496h-11.253zM10.374 7.511c-0.276 0-0.503-0.227-0.503-0.503s0.227-0.496 0.503-0.496h11.253c0.276 0 0.496 0.22 0.496 0.496s-0.22 0.503-0.496 0.503h-11.253zM5.902 26.919c0.276 0 0.503 0.22 0.503 0.496s-0.227 0.503-0.503 0.503h-3.748c-0.588 0-1.127-0.248-1.524-0.638-0.007-0.007-0.014-0.021-0.028-0.028-0.368-0.39-0.602-0.914-0.602-1.495v-8.284c0-1.049 0.432-1.998 1.12-2.692 0.694-0.687 1.644-1.12 2.693-1.12h24.376c1.049 0 1.998 0.432 2.693 1.12 0.687 0.694 1.12 1.644 1.12 2.692v8.284c0 0.595-0.248 1.134-0.638 1.523-0.007 0.014-0.022 0.021-0.028 0.028-0.39 0.376-0.914 0.61-1.495 0.61h-3.727c-0.276 0-0.503-0.227-0.503-0.503s0.227-0.496 0.503-0.496h3.727c0.311 0 0.588-0.128 0.801-0.319 0-0.007 0.007-0.014 0.021-0.028 0.217-0.216 0.339-0.509 0.34-0.815v-8.284c0-0.772-0.319-1.474-0.829-1.984s-1.212-0.829-1.984-0.829h-24.376c-0.772 0-1.474 0.319-1.984 0.829s-0.829 1.212-0.829 1.984v8.284c-0.002 0.296 0.113 0.581 0.319 0.794l0.021 0.021c0.213 0.212 0.503 0.347 0.815 0.347l3.748-0z"></path>
<path fill="#5200d9" style="fill: var(--color1, #5200d9)" d="M26.913 16.007c0.482 0 0.921 0.198 1.233 0.517 0.014 0.007 0.021 0.021 0.036 0.028 0.297 0.319 0.481 0.744 0.481 1.204-0 0.231-0.046 0.459-0.135 0.672s-0.219 0.406-0.382 0.569c-0.319 0.319-0.751 0.51-1.233 0.51s-0.922-0.192-1.24-0.51c-0.326-0.331-0.509-0.776-0.51-1.24 0-0.482 0.198-0.921 0.51-1.233 0.163-0.163 0.356-0.293 0.568-0.382s0.441-0.135 0.672-0.135zM27.444 17.226c-0.135-0.134-0.326-0.22-0.531-0.22s-0.397 0.085-0.532 0.22c-0.135 0.142-0.22 0.326-0.22 0.531s0.085 0.397 0.22 0.531c0.070 0.070 0.152 0.126 0.244 0.163s0.189 0.057 0.288 0.056c0.199-0 0.39-0.079 0.531-0.22 0.070-0.070 0.126-0.152 0.163-0.244s0.057-0.189 0.056-0.288c0-0.198-0.078-0.375-0.198-0.51l-0.021-0.021z"></path>
<path fill="#5200d9" style="fill: var(--color1, #5200d9)" d="M4.592 17.261c0.276 0 0.503 0.219 0.503 0.496s-0.227 0.503-0.503 0.503c-0.277 0-0.496-0.227-0.496-0.503s0.22-0.496 0.496-0.496zM8.992 17.261c0.276 0 0.503 0.219 0.503 0.496s-0.227 0.503-0.503 0.503c-0.276 0-0.496-0.227-0.496-0.503s0.22-0.496 0.496-0.496zM6.795 17.261c0.277 0 0.496 0.219 0.496 0.496s-0.22 0.503-0.496 0.503c-0.276 0-0.503-0.227-0.503-0.503s0.227-0.496 0.503-0.496z"></path>
<path fill="#5200d9" style="fill: var(--color1, #5200d9)" d="M24.808 21.945c-0.043-0.269 0.149-0.525 0.425-0.567 0.269-0.035 0.524 0.156 0.56 0.425l1.254 8.574c0.007 0.064 0.014 0.128 0.014 0.184 0 0.375-0.156 0.708-0.404 0.964-0.24 0.244-0.554 0.404-0.893 0.453-0.070 0.014-0.141 0.021-0.212 0.021h-19.104c-0.071 0-0.141-0.007-0.213-0.021h-0.021c-0.33-0.058-0.635-0.216-0.872-0.453-0.248-0.255-0.404-0.588-0.404-0.964 0-0.057 0.007-0.12 0.014-0.184l1.247-8.574c0.020-0.131 0.091-0.248 0.197-0.328s0.239-0.114 0.37-0.097c0.131 0.020 0.249 0.091 0.328 0.197s0.114 0.239 0.097 0.37l-1.254 8.574v0.042c0 0.099 0.050 0.191 0.12 0.269 0.078 0.085 0.191 0.141 0.305 0.163h0.014c0.021 0 0.043 0.007 0.071 0.007h19.104c0.028 0 0.050-0.007 0.071-0.007 0.12-0.020 0.232-0.077 0.319-0.163 0.071-0.078 0.12-0.17 0.12-0.269 0-0.014 0-0.035-0.007-0.042l-1.247-8.574z"></path>
<path fill="#5200d9" style="fill: var(--color1, #5200d9)" d="M4.712 24.262c0.276 0 0.496 0.227 0.496 0.503s-0.22 0.496-0.496 0.496c-0.411 0-0.787-0.17-1.063-0.439-0.269-0.276-0.439-0.652-0.439-1.056v-0.893c0.001-0.396 0.159-0.776 0.439-1.056h0.007c0.138-0.14 0.302-0.251 0.483-0.327s0.376-0.114 0.572-0.113h22.597c0.411 0 0.786 0.163 1.056 0.439 0.14 0.138 0.251 0.302 0.326 0.484s0.114 0.376 0.113 0.572v0.893c0.001 0.196-0.038 0.391-0.113 0.572s-0.186 0.346-0.326 0.484c-0.138 0.14-0.302 0.251-0.484 0.326s-0.376 0.114-0.572 0.114c-0.276 0-0.503-0.22-0.503-0.496s0.227-0.503 0.503-0.503c0.132-0.002 0.258-0.052 0.354-0.142v-0.007c0.085-0.085 0.142-0.212 0.142-0.347v-0.893c0-0.135-0.057-0.262-0.142-0.347v-0.007c-0.096-0.090-0.223-0.14-0.354-0.142h-22.597c-0.142 0-0.269 0.057-0.354 0.142v0.007c-0.092 0.085-0.149 0.212-0.149 0.347v0.893c0 0.135 0.057 0.262 0.149 0.347v0.007c0.085 0.085 0.213 0.142 0.354 0.142zM7.199 12.223c0 0.276-0.227 0.503-0.503 0.503s-0.496-0.227-0.496-0.503v-10.884c-0-0.175 0.034-0.348 0.101-0.51s0.165-0.309 0.289-0.432l0.035-0.035c0.241-0.22 0.56-0.361 0.914-0.361h13.612c0.173 0 0.344 0.034 0.503 0.099 0.163 0.064 0.305 0.156 0.432 0.276l3.281 3.090c0.142 0.134 0.255 0.283 0.326 0.453s0.107 0.347 0.107 0.538v7.766c0 0.276-0.22 0.503-0.496 0.503s-0.503-0.227-0.503-0.503v-7.050l-2.325 0.007v0.007h-0.007v-0.007c-0.673 0-1.183-0.234-1.524-0.602-0.347-0.376-0.51-0.865-0.51-1.389h-0.007v-2.189h-12.89c-0.085 0-0.17 0.036-0.227 0.085l-0.014 0.014c-0.032 0.032-0.057 0.069-0.074 0.111s-0.026 0.086-0.025 0.13l-0 10.884zM24.673 4.181l-3.245-3.054v2.062c0 0.276 0.085 0.531 0.248 0.708s0.425 0.29 0.794 0.29h0.007l2.197-0.007z"></path>
</symbol>
<symbol id="icon-wallet" viewBox="0 0 32 32">
<path fill="#5200d9" style="fill: var(--color1, #5200d9)" d="M31.933 18.705h-1.064v-4.254c-0.002-1.468-1.191-2.657-2.659-2.659h-1.509l1.436-2.488c0.212-0.367 0.269-0.803 0.159-1.212-0.054-0.202-0.148-0.392-0.276-0.558s-0.287-0.306-0.469-0.41l-11.977-6.913c-0.763-0.435-1.734-0.174-2.177 0.585l-6.346 10.997h-4.368c-1.468 0.002-2.657 1.191-2.659 2.659v14.89c0.002 1.468 1.191 2.657 2.659 2.659h25.526c1.468-0.002 2.657-1.191 2.659-2.659v-4.254h1.064v-6.381zM27.219 8.772l-2.973 5.148h-9.616l5.641-9.773 6.754 3.899c0.121 0.072 0.208 0.188 0.245 0.323s0.018 0.28-0.050 0.403zM10.945 13.919l6.564-11.367 1.84 1.064-5.947 10.303h-2.457zM14.324 1.327c0.071-0.122 0.187-0.211 0.322-0.247s0.281-0.017 0.403 0.053l1.539 0.888-6.871 11.898h-2.665l7.272-12.592zM29.806 29.341c0 0.881-0.714 1.595-1.596 1.595h-25.526c-0.881 0-1.595-0.714-1.595-1.595v-14.89c0-0.881 0.714-1.595 1.595-1.595h3.753l-0.616 1.064h-2.606v1.064h24.462v-1.064h-2.206l0.615-1.064h2.123c0.881 0 1.596 0.714 1.596 1.595v4.254h-5.85c-1.468 0.002-2.657 1.191-2.659 2.659v1.064c0.002 1.468 1.191 2.657 2.659 2.659h5.85v4.254zM30.87 24.023h-6.913c-0.881 0-1.595-0.714-1.595-1.595v-1.064c0-0.881 0.714-1.595 1.595-1.595h6.913v4.254z"></path>
<path fill="#5200d9" style="fill: var(--color1, #5200d9)" d="M22.893 21.896c0 0.881 0.714 1.595 1.595 1.595s1.595-0.714 1.595-1.595c0-0.881-0.714-1.595-1.595-1.595s-1.595 0.714-1.595 1.595zM24.488 21.364c0.141 0 0.276 0.056 0.376 0.156s0.156 0.235 0.156 0.376c0 0.141-0.056 0.276-0.156 0.376s-0.235 0.156-0.376 0.156c-0.141 0-0.276-0.056-0.376-0.156s-0.156-0.235-0.156-0.376c0-0.141 0.056-0.276 0.156-0.376s0.235-0.156 0.376-0.156z"></path>
</symbol>
<symbol id="icon-form" viewBox="0 0 32 32">
<path fill="#5200d9" style="fill: var(--color1, #5200d9)" d="M31 18.5h-4c-0.133 0-0.26 0.053-0.354 0.146s-0.146 0.221-0.146 0.354v1h-0.793l-1.25-1.25 1.396-1.397c0.094-0.094 0.146-0.221 0.146-0.354s-0.053-0.26-0.146-0.354l-2-2c-0.094-0.094-0.221-0.146-0.354-0.146s-0.26 0.053-0.354 0.146l-2.354 2.354h-2.793c-0.133 0-0.26 0.053-0.354 0.146l-0.354 0.354h-8.293v1h7.293l-1 1h-6.293v1h5.293l-0.146 0.147c-0.094 0.094-0.146 0.221-0.146 0.354v2.793l-1.354 1.354c-0.070 0.070-0.117 0.159-0.136 0.256l-0.5 2.5c-0.016 0.081-0.012 0.164 0.012 0.243s0.067 0.15 0.125 0.209c0.058 0.058 0.13 0.101 0.209 0.125s0.163 0.027 0.243 0.011l2.5-0.5c0.097-0.019 0.186-0.067 0.255-0.137l1.986-1.986c0.209 0.087 0.433 0.131 0.659 0.132h2.793l1.354 1.354c0.094 0.094 0.221 0.146 0.354 0.147v3h-21v-29h21v12h1v-12.5c0-0.133-0.053-0.26-0.146-0.354s-0.221-0.146-0.354-0.146h-22c-0.133 0-0.26 0.053-0.354 0.146s-0.146 0.221-0.146 0.354v30c0 0.133 0.053 0.26 0.146 0.353s0.221 0.147 0.354 0.147h22c0.133 0 0.26-0.053 0.354-0.147s0.146-0.221 0.146-0.353v-3.5h3v0.5c0 0.133 0.053 0.26 0.146 0.354s0.221 0.146 0.354 0.146h4c0.133 0 0.26-0.052 0.353-0.146s0.147-0.221 0.147-0.354v-9c0-0.133-0.053-0.26-0.147-0.354s-0.221-0.146-0.353-0.146zM23.5 15.707l1.293 1.293-5.5 5.5h-1.293c-0.318 0-0.63 0.087-0.903 0.252s-0.495 0.4-0.643 0.682c-0.148 0.281-0.217 0.598-0.199 0.916s0.122 0.624 0.302 0.887l-1.556 1.557-1.293-1.293 9.793-9.793zM15 21.207l3.207-3.207h1.586l-4.793 4.793v-1.586zM13.307 26.514l0.679 0.679-0.85 0.17 0.171-0.849zM22.707 26.5l-1.354-1.354c-0.094-0.094-0.221-0.146-0.354-0.146h-3c-0.199 0-0.39-0.079-0.53-0.22s-0.22-0.331-0.22-0.53c0-0.199 0.079-0.39 0.22-0.53s0.331-0.22 0.53-0.22h4.5v-1h-1.793l3.043-3.043 1.396 1.396c0.094 0.094 0.221 0.146 0.354 0.146h1v5.5h-3.793zM30.5 27.5h-3v-8h3v8z"></path>
<path fill="#5200d9" style="fill: var(--color1, #5200d9)" d="M7 22.5h-4c-0.133 0-0.26 0.053-0.354 0.146s-0.146 0.221-0.146 0.354v4c0 0.133 0.053 0.26 0.146 0.354s0.221 0.146 0.354 0.146h4c0.133 0 0.26-0.053 0.354-0.146s0.146-0.221 0.146-0.354v-3.293l1.354-1.354-0.707-0.707-0.917 0.917c-0.070-0.040-0.149-0.061-0.23-0.063zM6.5 26.5h-3v-3h2.793l-1.293 1.293-0.646-0.646-0.707 0.707 1 1c0.094 0.094 0.221 0.146 0.354 0.146s0.26-0.053 0.354-0.146l1.146-1.146v1.793zM8.146 3.647l-0.917 0.917c-0.070-0.040-0.149-0.061-0.23-0.063h-4c-0.133 0-0.26 0.053-0.354 0.146s-0.146 0.221-0.146 0.354v4c0 0.133 0.053 0.26 0.146 0.354s0.221 0.146 0.354 0.146h4c0.133 0 0.26-0.053 0.354-0.146s0.146-0.221 0.146-0.354v-3.293l1.353-1.354-0.707-0.707zM6.5 8.5h-3v-3h2.793l-1.293 1.293-0.646-0.646-0.707 0.707 1 1c0.094 0.094 0.221 0.146 0.354 0.146s0.26-0.053 0.354-0.146l1.146-1.146v1.793zM8.146 9.646l-0.917 0.917c-0.070-0.040-0.149-0.061-0.23-0.063h-4c-0.133 0-0.26 0.053-0.354 0.146s-0.146 0.221-0.146 0.354v4c0 0.133 0.053 0.26 0.146 0.354s0.221 0.146 0.354 0.146h4c0.133 0 0.26-0.053 0.354-0.146s0.146-0.221 0.146-0.354v-3.293l1.353-1.354-0.707-0.707zM6.5 14.5h-3v-3h2.793l-1.293 1.293-0.646-0.646-0.707 0.707 1 1c0.094 0.094 0.221 0.146 0.354 0.146s0.26-0.053 0.354-0.146l1.146-1.147v1.793zM8.146 15.646l-0.917 0.917c-0.070-0.040-0.149-0.061-0.23-0.063h-4c-0.133 0-0.26 0.053-0.354 0.146s-0.146 0.221-0.146 0.354v4c0 0.133 0.053 0.26 0.146 0.354s0.221 0.146 0.354 0.146h4c0.133 0 0.26-0.053 0.354-0.146s0.146-0.221 0.146-0.354v-3.293l1.353-1.354-0.707-0.707zM6.5 20.5h-3v-3h2.793l-1.293 1.293-0.646-0.646-0.707 0.707 1 1c0.094 0.094 0.221 0.146 0.354 0.146s0.26-0.053 0.354-0.146l1.146-1.146v1.793zM9 5.5h12.5v1h-12.5v-1zM9 7.5h10.5v1h-10.5v-1zM20.5 7.5h1v1h-1v-1zM9 11.5h12.5v1h-12.5v-1zM9 13.5h10.5v1h-10.5v-1zM20.5 13.5h1v1h-1v-1zM9 23.5h2.5v1h-2.5v-1zM9 25.5h2.5v1h-2.5v-1z"></path>
</symbol>
<symbol id="icon-calc" viewBox="0 0 32 32">
<path fill="#5200d9" style="fill: var(--color1, #5200d9)" d="M26.020 0h-20.040c-1.363 0-2.473 1.109-2.473 2.473v27.055c0 1.363 1.109 2.473 2.473 2.473h20.040c1.363 0 2.473-1.109 2.473-2.473v-27.055c0-1.363-1.109-2.473-2.473-2.473zM4.445 2.473c0-0.847 0.689-1.535 1.535-1.535h20.040c0.847 0 1.535 0.689 1.535 1.535v9.551h-23.111v-9.551zM27.555 29.527c0 0.846-0.689 1.535-1.535 1.535h-20.040c-0.847 0-1.535-0.689-1.535-1.535v-16.566h23.111v16.566z"></path>
<path fill="#5200d9" style="fill: var(--color1, #5200d9)" d="M21.511 3.006h-14.028c-0.535 0-0.97 0.435-0.97 0.97v5.010c0 0.535 0.435 0.97 0.97 0.97h1.002c0.259 0 0.469-0.21 0.469-0.469s-0.21-0.469-0.469-0.469h-1.002c-0.004 0-0.008-0.001-0.012-0.002s-0.007-0.004-0.010-0.007c-0.003-0.003-0.005-0.007-0.007-0.010s-0.002-0.008-0.002-0.012v-5.010c0-0.018 0.014-0.032 0.032-0.032h14.028c0.259 0 0.469-0.21 0.469-0.469s-0.21-0.469-0.469-0.469z"></path>
<path fill="#5200d9" style="fill: var(--color1, #5200d9)" d="M24.517 3.006h-1.002c-0.259 0-0.469 0.21-0.469 0.469s0.21 0.469 0.469 0.469h1.002c0.018 0 0.032 0.014 0.032 0.032v5.010c0 0.009-0.003 0.017-0.009 0.023s-0.014 0.009-0.023 0.009h-14.028c-0.259 0-0.469 0.21-0.469 0.469s0.21 0.469 0.469 0.469h14.028c0.535 0 0.97-0.435 0.97-0.97v-5.010c0-0.535-0.435-0.97-0.97-0.97zM13.495 15.030c-1.087 0-1.972 0.885-1.972 1.972s0.884 1.972 1.972 1.972c1.087 0 1.972-0.884 1.972-1.972s-0.884-1.972-1.972-1.972zM13.495 18.036c-0.57 0-1.034-0.464-1.034-1.034s0.464-1.034 1.034-1.034c0.57 0 1.034 0.464 1.034 1.034s-0.464 1.034-1.034 1.034zM13.495 20.040c-1.087 0-1.972 0.885-1.972 1.972s0.884 1.972 1.972 1.972c1.087 0 1.972-0.885 1.972-1.972s-0.884-1.972-1.972-1.972zM13.495 23.046c-0.57 0-1.034-0.464-1.034-1.034s0.464-1.034 1.034-1.034c0.57 0 1.034 0.464 1.034 1.034s-0.464 1.034-1.034 1.034zM13.495 25.050c-1.087 0-1.972 0.884-1.972 1.972s0.884 1.972 1.972 1.972c1.087 0 1.972-0.884 1.972-1.972s-0.884-1.972-1.972-1.972zM13.495 28.056c-0.57 0-1.034-0.464-1.034-1.034s0.464-1.034 1.034-1.034c0.57 0 1.034 0.464 1.034 1.034s-0.464 1.034-1.034 1.034zM18.505 15.030c-1.087 0-1.972 0.885-1.972 1.972s0.884 1.972 1.972 1.972c1.087 0 1.972-0.884 1.972-1.972s-0.884-1.972-1.972-1.972zM18.505 18.036c-0.57 0-1.034-0.464-1.034-1.034s0.464-1.034 1.034-1.034c0.57 0 1.034 0.464 1.034 1.034s-0.464 1.034-1.034 1.034zM18.505 20.040c-1.087 0-1.972 0.885-1.972 1.972s0.884 1.972 1.972 1.972c1.087 0 1.972-0.885 1.972-1.972s-0.884-1.972-1.972-1.972zM18.505 23.046c-0.57 0-1.034-0.464-1.034-1.034s0.464-1.034 1.034-1.034c0.57 0 1.034 0.464 1.034 1.034s-0.464 1.034-1.034 1.034zM18.505 25.050c-1.087 0-1.972 0.884-1.972 1.972s0.884 1.972 1.972 1.972c1.087 0 1.972-0.884 1.972-1.972s-0.884-1.972-1.972-1.972zM18.505 28.056c-0.57 0-1.034-0.464-1.034-1.034s0.464-1.034 1.034-1.034c0.57 0 1.034 0.464 1.034 1.034s-0.464 1.034-1.034 1.034zM8.485 15.030c-1.087 0-1.972 0.885-1.972 1.972s0.885 1.972 1.972 1.972c1.087 0 1.972-0.884 1.972-1.972s-0.884-1.972-1.972-1.972zM8.485 18.036c-0.57 0-1.034-0.464-1.034-1.034s0.464-1.034 1.034-1.034c0.57 0 1.034 0.464 1.034 1.034s-0.464 1.034-1.034 1.034zM8.485 20.040c-1.087 0-1.972 0.885-1.972 1.972s0.885 1.972 1.972 1.972c1.087 0 1.972-0.885 1.972-1.972s-0.884-1.972-1.972-1.972zM8.485 23.046c-0.57 0-1.034-0.464-1.034-1.034s0.464-1.034 1.034-1.034c0.57 0 1.034 0.464 1.034 1.034s-0.464 1.034-1.034 1.034zM8.485 25.050c-1.087 0-1.972 0.884-1.972 1.972s0.885 1.972 1.972 1.972c1.087 0 1.972-0.884 1.972-1.972s-0.884-1.972-1.972-1.972zM8.485 28.056c-0.57 0-1.034-0.464-1.034-1.034s0.464-1.034 1.034-1.034c0.57 0 1.034 0.464 1.034 1.034s-0.464 1.034-1.034 1.034zM23.515 15.030c-1.087 0-1.972 0.885-1.972 1.972s0.885 1.972 1.972 1.972c1.087 0 1.972-0.884 1.972-1.972s-0.884-1.972-1.972-1.972zM23.515 18.036c-0.57 0-1.034-0.464-1.034-1.034s0.464-1.034 1.034-1.034c0.57 0 1.034 0.464 1.034 1.034s-0.464 1.034-1.034 1.034zM23.515 20.040c-1.087 0-1.972 0.885-1.972 1.972v5.010c0 1.087 0.885 1.972 1.972 1.972s1.972-0.884 1.972-1.972v-5.010c0-1.087-0.884-1.972-1.972-1.972zM24.549 27.022c0 0.57-0.464 1.034-1.034 1.034s-1.034-0.464-1.034-1.034v-5.010c0-0.57 0.464-1.034 1.034-1.034s1.034 0.464 1.034 1.034v5.010z"></path>
</symbol>
</defs>
</svg>
