<svg aria-hidden="true" style="position: absolute; width: 0; height: 0; overflow: hidden;" version="1.1" xmlns="http://www.w3.org/2000/svg" xmlns:xlink="http://www.w3.org/1999/xlink">
<defs>
<symbol id="icon-mail" viewBox="0 0 32 32">
<path  d="M26.667 26.666h-21.333c-1.473 0-2.667-1.194-2.667-2.667v-16.116c0.062-1.427 1.238-2.552 2.667-2.551h21.333c1.473 0 2.667 1.194 2.667 2.667v16c0 1.473-1.194 2.667-2.667 2.667zM5.333 10.49v13.509h21.333v-13.509l-10.667 7.109-10.667-7.109zM6.4 8l9.6 6.4 9.6-6.4h-19.2z"></path>
</symbol>
<symbol id="icon-star" viewBox="0 0 32 32">
<path fill="#ffe923" style="fill: var(--color2, #ffe923)" d="M16 1.333l3.592 11.056h11.625l-9.405 6.833 3.592 11.056-9.405-6.833-9.405 6.833 3.592-11.056-9.405-6.833h11.625l3.592-11.056z"></path>
</symbol>
<symbol id="icon-calc" viewBox="0 0 32 32">
<path fill="#5200d9" style="fill: var(--color3, #5200d9)" d="M26.020 0h-20.040c-1.363 0-2.473 1.109-2.473 2.473v27.055c0 1.363 1.109 2.473 2.473 2.473h20.040c1.363 0 2.473-1.109 2.473-2.473v-27.055c0-1.363-1.109-2.473-2.473-2.473zM4.445 2.473c0-0.847 0.689-1.535 1.535-1.535h20.040c0.847 0 1.535 0.689 1.535 1.535v9.551h-23.111v-9.551zM27.555 29.527c0 0.846-0.689 1.535-1.535 1.535h-20.040c-0.847 0-1.535-0.689-1.535-1.535v-16.566h23.111v16.566z"></path>
<path fill="#5200d9" style="fill: var(--color3, #5200d9)" d="M21.511 3.006h-14.028c-0.535 0-0.97 0.435-0.97 0.97v5.010c0 0.535 0.435 0.97 0.97 0.97h1.002c0.259 0 0.469-0.21 0.469-0.469s-0.21-0.469-0.469-0.469h-1.002c-0.004 0-0.008-0.001-0.012-0.002s-0.007-0.004-0.010-0.007c-0.003-0.003-0.005-0.007-0.007-0.010s-0.002-0.008-0.002-0.012v-5.010c0-0.018 0.014-0.032 0.032-0.032h14.028c0.259 0 0.469-0.21 0.469-0.469s-0.21-0.469-0.469-0.469z"></path>
<path fill="#5200d9" style="fill: var(--color3, #5200d9)" d="M24.517 3.006h-1.002c-0.259 0-0.469 0.21-0.469 0.469s0.21 0.469 0.469 0.469h1.002c0.018 0 0.032 0.014 0.032 0.032v5.010c-0 0.009-0.003 0.017-0.009 0.023s-0.014 0.009-0.023 0.009h-14.028c-0.259 0-0.469 0.21-0.469 0.469s0.21 0.469 0.469 0.469h14.028c0.535 0 0.97-0.435 0.97-0.97v-5.010c0-0.535-0.435-0.97-0.97-0.97zM13.495 15.030c-1.087 0-1.972 0.884-1.972 1.972s0.884 1.972 1.972 1.972c1.087 0 1.972-0.884 1.972-1.972s-0.884-1.972-1.972-1.972zM13.495 18.036c-0.57 0-1.034-0.464-1.034-1.034s0.464-1.034 1.034-1.034c0.57 0 1.034 0.464 1.034 1.034s-0.464 1.034-1.034 1.034zM13.495 20.040c-1.087 0-1.972 0.884-1.972 1.972s0.884 1.972 1.972 1.972c1.087 0 1.972-0.884 1.972-1.972s-0.884-1.972-1.972-1.972zM13.495 23.046c-0.57 0-1.034-0.464-1.034-1.034s0.464-1.034 1.034-1.034c0.57 0 1.034 0.464 1.034 1.034s-0.464 1.034-1.034 1.034zM13.495 25.050c-1.087 0-1.972 0.884-1.972 1.972s0.884 1.972 1.972 1.972c1.087 0 1.972-0.884 1.972-1.972s-0.884-1.972-1.972-1.972zM13.495 28.056c-0.57 0-1.034-0.464-1.034-1.034s0.464-1.034 1.034-1.034c0.57 0 1.034 0.464 1.034 1.034s-0.464 1.034-1.034 1.034zM18.505 15.030c-1.087 0-1.972 0.884-1.972 1.972s0.884 1.972 1.972 1.972c1.087 0 1.972-0.884 1.972-1.972s-0.884-1.972-1.972-1.972zM18.505 18.036c-0.57 0-1.034-0.464-1.034-1.034s0.464-1.034 1.034-1.034c0.57 0 1.034 0.464 1.034 1.034s-0.464 1.034-1.034 1.034zM18.505 20.040c-1.087 0-1.972 0.884-1.972 1.972s0.884 1.972 1.972 1.972c1.087 0 1.972-0.884 1.972-1.972s-0.884-1.972-1.972-1.972zM18.505 23.046c-0.57 0-1.034-0.464-1.034-1.034s0.464-1.034 1.034-1.034c0.57 0 1.034 0.464 1.034 1.034s-0.464 1.034-1.034 1.034zM18.505 25.050c-1.087 0-1.972 0.884-1.972 1.972s0.884 1.972 1.972 1.972c1.087 0 1.972-0.884 1.972-1.972s-0.884-1.972-1.972-1.972zM18.505 28.056c-0.57 0-1.034-0.464-1.034-1.034s0.464-1.034 1.034-1.034c0.57 0 1.034 0.464 1.034 1.034s-0.464 1.034-1.034 1.034zM8.485 15.030c-1.087 0-1.972 0.884-1.972 1.972s0.885 1.972 1.972 1.972c1.087 0 1.972-0.884 1.972-1.972s-0.884-1.972-1.972-1.972zM8.485 18.036c-0.57 0-1.034-0.464-1.034-1.034s0.464-1.034 1.034-1.034c0.57 0 1.034 0.464 1.034 1.034s-0.464 1.034-1.034 1.034zM8.485 20.040c-1.087 0-1.972 0.884-1.972 1.972s0.885 1.972 1.972 1.972c1.087 0 1.972-0.884 1.972-1.972s-0.884-1.972-1.972-1.972zM8.485 23.046c-0.57 0-1.034-0.464-1.034-1.034s0.464-1.034 1.034-1.034c0.57 0 1.034 0.464 1.034 1.034s-0.464 1.034-1.034 1.034zM8.485 25.050c-1.087 0-1.972 0.884-1.972 1.972s0.885 1.972 1.972 1.972c1.087 0 1.972-0.884 1.972-1.972s-0.884-1.972-1.972-1.972zM8.485 28.056c-0.57 0-1.034-0.464-1.034-1.034s0.464-1.034 1.034-1.034c0.57 0 1.034 0.464 1.034 1.034s-0.464 1.034-1.034 1.034zM23.515 15.030c-1.087 0-1.972 0.884-1.972 1.972s0.884 1.972 1.972 1.972c1.087 0 1.972-0.884 1.972-1.972s-0.884-1.972-1.972-1.972zM23.515 18.036c-0.57 0-1.034-0.464-1.034-1.034s0.464-1.034 1.034-1.034c0.57 0 1.034 0.464 1.034 1.034s-0.464 1.034-1.034 1.034zM23.515 20.040c-1.087 0-1.972 0.884-1.972 1.972v5.010c0 1.087 0.884 1.972 1.972 1.972s1.972-0.884 1.972-1.972v-5.010c0-1.087-0.884-1.972-1.972-1.972zM24.549 27.022c0 0.57-0.464 1.034-1.034 1.034s-1.034-0.464-1.034-1.034v-5.010c0-0.57 0.464-1.034 1.034-1.034s1.034 0.464 1.034 1.034v5.010z"></path>
</symbol>
<symbol id="icon-date" viewBox="0 0 32 32">
<path fill="#5200d9" style="fill: var(--color3, #5200d9)" d="M25.332 29.335h-18.667c-1.473 0-2.667-1.194-2.667-2.667v-18.667c0-1.473 1.194-2.667 2.667-2.667h2.667v-2.667h2.667v2.667h8v-2.667h2.667v2.667h2.667c1.473 0 2.667 1.194 2.667 2.667v18.667c0 1.473-1.194 2.667-2.667 2.667zM6.666 13.335v13.333h18.667v-13.333h-18.667zM6.666 8.001v2.667h18.667v-2.667h-18.667z"></path>
</symbol>
<symbol id="icon-btn-mob" viewBox="0 0 32 32">
<path fill="#fff" style="fill: var(--color1, #fff)" d="M28 24h-24v-2.667h24v2.667zM28 17.333h-24v-2.667h24v2.667zM28 10.667h-12v-2.667h12v2.667z"></path>
</symbol>
<symbol id="icon-check" viewBox="0 0 32 32">
<path fill="#5200d9" style="fill: var(--color3, #5200d9)" d="M3.284 14.753c-0.622 0.002-1.23 0.168-1.755 0.479s-0.945 0.756-1.211 1.281c-0.266 0.525-0.368 1.111-0.293 1.688s0.322 1.123 0.715 1.574l8.364 9.582c0.298 0.346 0.681 0.621 1.115 0.802s0.909 0.261 1.384 0.236c1.015-0.051 1.932-0.559 2.516-1.394l17.375-26.169c0.003-0.004 0.006-0.009 0.009-0.013 0.163-0.234 0.11-0.698-0.226-0.989-0.092-0.080-0.201-0.142-0.32-0.181s-0.245-0.055-0.371-0.047-0.248 0.040-0.36 0.094c-0.112 0.054-0.211 0.129-0.291 0.22-0.006 0.007-0.013 0.014-0.019 0.021l-17.523 18.515c-0.067 0.070-0.148 0.128-0.238 0.169s-0.189 0.065-0.289 0.070c-0.1 0.005-0.201-0.009-0.296-0.040s-0.182-0.080-0.256-0.144l-5.816-4.949c-0.604-0.518-1.393-0.805-2.213-0.806z"></path>
</symbol>
<symbol id="icon-close-black-18dp-2-1" viewBox="0 0 32 32">
<path d="M32 3.223l-3.223-3.223-12.777 12.777-12.777-12.777-3.223 3.223 12.777 12.777-12.777 12.777 3.223 3.223 12.777-12.777 12.777 12.777 3.223-3.223-12.777-12.777 12.777-12.777z"></path>
</symbol>
</defs>
</svg>
